<svg xmlns="http://www.w3.org/2000/svg" width="226.734375" height="35" viewBox="0 0 226.734375 35" class="badge-svg" data-v-3c87b7b4=""><defs data-v-3c87b7b4=""><!----><!----><!----></defs><path data-v-3c87b7b4="" d="M 10 0 L 56 0 L 56 35 L 10 35 Q 0 35 0 25 L 0 10 Q 0 0 10 0 Z" fill="#424242"/><!--[--><path data-v-3c87b7b4="" d="M 56 0 L 216.734375 0 Q 226.734375 0 226.734375 10 L 226.734375 25 Q 226.734375 35 216.734375 35 L 56 35 Z" fill="#1565c0"/><!--]--><!----><text x="28" y="17.5" dy="0.35em" font-size="12" font-family="Roboto, sans-serif" fill="#FFFFFF" text-anchor="middle" letter-spacing="2" font-weight="600" font-style="normal" text-decoration="none" fill-opacity="1" font-variant="normal" style="text-transform:uppercase;" data-v-3c87b7b4="">LINK</text><g data-v-3c87b7b4="" transform="translate(66, 9.5) scale(0.6666666666666666)"><path data-v-3c87b7b4="" d="M14.727 6.727H14V0H4.91c-.905 0-1.637.732-1.637 1.636v20.728c0 .904.732 1.636 1.636 1.636h14.182c.904 0 1.636-.732 1.636-1.636V6.727h-6zm-.545 10.455H7.09v-1.364h7.09v1.364zm2.727-3.273H7.091v-1.364h9.818v1.364zm0-3.273H7.091V9.273h9.818v1.363zM14.727 6h6l-6-6v6z" fill="#FFFFFF"/></g><text x="151.3671875" y="17.5" dy="0.35em" font-size="12" font-family="Montserrat, sans-serif" fill="#FFFFFF" text-anchor="middle" font-weight="900" letter-spacing="2" font-style="normal" text-decoration="none" fill-opacity="1" font-variant="normal" style="text-transform:uppercase;" data-v-3c87b7b4="">REQUIREMENTS</text><!----></svg>