<svg xmlns="http://www.w3.org/2000/svg" width="248.125" height="35" viewBox="0 0 248.125 35" class="badge-svg" data-v-3c87b7b4=""><defs data-v-3c87b7b4=""><!----><!----><!----></defs><path data-v-3c87b7b4="" d="M 10 0 L 56 0 L 56 35 L 10 35 Q 0 35 0 25 L 0 10 Q 0 0 10 0 Z" fill="#424242"/><!--[--><path data-v-3c87b7b4="" d="M 56 0 L 238.125 0 Q 248.125 0 248.125 10 L 248.125 25 Q 248.125 35 238.125 35 L 56 35 Z" fill="#ef6c00"/><!--]--><!----><text x="28" y="17.5" dy="0.35em" font-size="12" font-family="Roboto, sans-serif" fill="#FFFFFF" text-anchor="middle" letter-spacing="2" font-weight="600" font-style="normal" text-decoration="none" fill-opacity="1" font-variant="normal" style="text-transform:uppercase;" data-v-3c87b7b4="">LINK</text><g data-v-3c87b7b4="" transform="translate(66, 9.5) scale(0.6666666666666666)"><path data-v-3c87b7b4="" d="M6.74 6.772a7.436 7.436 0 0 1 10.519 0 7.432 7.432 0 0 1 0 10.515 7.436 7.436 0 0 1-10.52 0c-2.904-2.905-2.904-7.64 0-10.515M12 20.337c-4.59 0-8.338-3.747-8.338-8.337s3.748-8.308 8.338-8.308c4.591 0 8.31 3.748 8.31 8.308 0 4.619-3.719 8.337-8.31 8.337zm12-8.366L21.27 9.5l1.103-3.514-3.603-.784-.784-3.602-3.515 1.133L11.97.004l-2.47 2.73L5.986 1.63 5.2 5.231l-3.602.785 1.133 3.515L0 12.03l2.732 2.47-1.105 3.514 3.603.784.784 3.603 3.516-1.134 2.5 2.731 2.468-2.73 3.516 1.103.785-3.602 3.603-.813-1.134-3.515L24 11.97z" fill="#FFFFFF"/></g><text x="162.0625" y="17.5" dy="0.35em" font-size="12" font-family="Montserrat, sans-serif" fill="#FFFFFF" text-anchor="middle" font-weight="900" letter-spacing="2" font-style="normal" text-decoration="none" fill-opacity="1" font-variant="normal" style="text-transform:uppercase;" data-v-3c87b7b4="">GPL 3.0 OR LATER</text><!----></svg>