<?xml version="1.0" encoding="UTF-8"?>
<svg version="1.0" viewBox="0 0 99.997 120" xmlns="http://www.w3.org/2000/svg">
 <defs>
  <linearGradient id="linearGradient26" x1="14.554" x2="510.45" y1="300.01" y2="300.01" gradientTransform="matrix(.20248 0 0 .20248 -3.1483 -.74216)" gradientUnits="userSpaceOnUse">
   <stop stop-color="#0026ff" offset="0"/>
   <stop stop-color="#002eff" stop-opacity="0" offset="1"/>
  </linearGradient>
 </defs>
 <path id="X" d="m9.9999e-4 100.34c0-1.8936 6.8246-11.401 15.166-21.128 8.3412-9.7269 16.381-19.172 17.863-20.988 1.4837-1.8166-0.05735-12.361-3.4247-23.432-6.9756-22.934-7.6116-30.561-2.7964-33.536 6.5815-4.0676 15.614 1.9416 23.196 15.432l7.681 13.667 14.425-14.157c9.4845-9.3083 16.255-13.454 19.77-12.106 6.9536 2.6685 10.966 13.11 5.7119 14.862-5.9646 1.9882-30.652 39.557-30.605 46.574 0.02217 3.3229 3.5299 12.142 7.7948 19.601 3.0083 5.2598 7.0517 9.4101 5.4467 12.263l-8.5804 15.251c-1.6642 2.9579-7.8111-4.9281-15.093-12.583l-12.703-13.353-14.082 16.701c-7.745 9.1852-14.975 16.653-16.068 16.595-1.0926-0.0578-13.703-17.767-13.703-19.66z" fill="url(#linearGradient26)" stroke-width=".99999"/>
</svg>
