<?xml version="1.0" encoding="UTF-8"?>
<svg version="1.0" viewBox="0 0 99.999 120" xmlns="http://www.w3.org/2000/svg">
 <defs>
  <linearGradient id="linearGradient26" x1="14.554" x2="510.45" y1="300.01" y2="300.01" gradientTransform="matrix(.20248 0 0 .20248 -3.1478 -.7375)" gradientUnits="userSpaceOnUse">
   <stop stop-color="#0026ff" offset="0"/>
   <stop stop-color="#002eff" stop-opacity="0" offset="1"/>
  </linearGradient>
 </defs>
 <path id="X" d="m0.0015125 100.34c0-1.8936 6.8248-11.401 15.166-21.128 8.3414-9.7271 16.381-19.172 17.863-20.988 1.4837-1.8166-0.057353-12.361-3.4247-23.432-6.9758-22.934-7.6118-30.561-2.7964-33.536 6.5817-4.0676 15.614 1.9416 23.196 15.432l7.6812 13.667 14.425-14.157c9.4847-9.3085 16.255-13.454 19.77-12.106 6.9538 2.6685 10.966 13.11 5.7119 14.862-5.9647 1.9882-30.652 39.557-30.605 46.574 0.02217 3.3229 3.5299 12.142 7.795 19.601 3.0083 5.2598 7.0519 9.4103 5.4467 12.263l-8.5806 15.251c-1.6642 2.9579-7.8113-4.9281-15.093-12.583l-12.703-13.353-14.082 16.701c-7.7452 9.1854-14.975 16.653-16.068 16.595-1.0926-0.05778-13.703-17.767-13.703-19.66z" fill="url(#linearGradient26)" stroke="#000" stroke-linejoin="round" stroke-width=".99905"/>
</svg>
