<svg width="128.62" height="100" version="1.1" viewBox="197.4 10.4 128.62 100" xmlns="http://www.w3.org/2000/svg">
 <defs>
  <filter id="editing-hole" x="-.11041" y="-.14201" width="1.2398" height="1.3085">
   <feFlood result="black"/>
   <feMorphology in="SourceGraphic" operator="dilate" radius="2" result="erode"/>
   <feGaussianBlur in="erode" result="blur" stdDeviation="4"/>
   <feOffset dx="2" dy="2" in="blur" result="offset"/>
   <feComposite in="offset" in2="black" operator="atop" result="merge"/>
   <feComposite in="merge" in2="SourceGraphic" operator="in" result="inner-shadow"/>
  </filter>
 </defs>
 <g transform="matrix(1.2242 0 0 1.2242 -65.58 -64.568)" fill="#0125ed" filter="url(#editing-hole)">
  <g transform="matrix(1.7154 0 0 1.7154 237.87 125.68)" fill="#0125ed">
   <path d="m1.34-27.33q-0.25-0.64-0.25-1.09 0-2.75 2.24-4.8 2.24-2.04 5.69-2.81 4.48-1.03 8.23-1.03 3.74 0 6.24 0.64 0.7-0.83 1.34-0.89 1.09-0.13 1.09 1.53l1.34 0.58q0.96 0.51 1.54 1.41 0.77 1.34-1.92 0.38l-1.28-0.32q-0.32 2.56-0.32 5.19 0 6.27 1.73 13.05 3.84-4.48 9.63-12.45 5.79-7.96 6.88-9.31 0.32-0.32 0.61-0.32t0.7 0.26q0.42 0.25-0.03 1.02-8.77 13.31-17.15 22.98 1.41 4.48 3.26 7.58 1.86 3.11 3.01 3.94t1.98 0.83q0.84 0 1.48-0.19 1.85-0.51 4.99-3.39 3.13-2.88 4.48-4.93 0.25-0.39 0.61-0.19 0.35 0.19 0.35 0.32 0 0.83-2.88 4.03-6.21 6.91-10.43 6.91-1.48 0-2.88-0.86-1.41-0.87-3.43-3.62-2.01-2.75-3.55-6.91-4.54 5.05-9.12 9.09-4.58 4.03-7.78 6.01-7.61 4.74-12.67 4.74-3.45 0-6.14-1.92-2.37-1.73-2.37-4.99 0-0.84 0.32-1.38t0.64-0.29q0.32 0.26 0.32 1.95 0 1.7 1.73 2.85 1.92 1.22 4.38 1.22 2.47 0 4.99-0.9 2.53-0.89 5.44-2.53 2.92-1.63 5.57-3.58 2.66-1.95 5.35-4.26 4.22-3.58 8.64-8.19-2.12-6.59-2.12-13.02t0.64-9.12q-1.47-0.13-3.07-0.13t-4.16 0.22q-2.56 0.23-5.66 1.06-3.11 0.83-4.99 2.46-1.89 1.64-1.89 3.36 0 1.73 0.83 2.5t2.08 1.31q1.25 0.55 1.44 0.67 0.64 0.39 0 0.64l-0.64 0.07q-1.54-0.39-3.3-1.92-1.76-1.54-1.76-3.46z" fill="#0125ed"/>
  </g>
 </g>
</svg>
