<?xml version="1.0" encoding="UTF-8"?>
<svg width="259.91" height="80" version="1.0" viewBox="0 0 259.91 80" xmlns="http://www.w3.org/2000/svg">
 <g transform="matrix(.016374 0 0 -.016374 -17.187 96.907)" fill="#2a7fff">
  <path d="m4505 5910c-15-24 39-173 80-222 28-33 71-121 85-173 5-16 20-73 34-125 15-52 42-160 62-240s47-182 61-227c13-45 22-87 18-93-8-13 12-149 30-198l13-37 7 40c5 25 3 54-5 80-7 22-15 87-19 145-3 58-10 110-14 117s-12 40-17 75c-16 114-44 243-98 448-17 63-37 150-46 192-9 43-28 103-44 135-25 53-32 59-77 75-62 20-62 20-70 8z"/>
  <path d="m4125 5870c-40-44-27-183 32-370 15-47 35-91 44-98 19-13 29-40 53-147 18-80 56-339 56-388 1-17 7-45 15-62 12-27 13-16 14 119 1 82-3 187-9 235-5 47-19 172-31 276-25 227-51 355-85 413-28 48-59 55-89 22z"/>
  <path d="m16486 5828c-104-105-119-109-445-119-617-19-1280-69-1317-100-8-6-14-24-14-40 0-40 26-44 172-26 423 54 817 85 1347 107 227 10 286 17 396 50 17 5 47 12 68 15 67 10 103 78 55 103-32 16-181 72-192 72-5 0-37-28-70-62z"/>
  <path d="m3942 5745c-27-60-2-209 52-310l21-40 5 60c3 33 2 87-3 120-8 63-47 195-58 195-3 0-11-11-17-25z"/>
  <path d="m10700 5633c-8-2-21-6-28-9-9-3-2-17 22-46 20-23 36-49 36-59 0-9 13-28 29-41 28-24 36-25 232-31 112-4 258-7 324-7 169-1 488-48 595-89 75-29 96-27 115 8 8 16 33 50 55 76 46 53 49 67 18 83-42 21-222 75-298 88-133 24-1042 47-1100 27z"/>
  <path d="m16845 5597c-34-30-39-39-40-79-1-85-75-159-182-184-64-15-92-11-140 18-38 22-42 48-18 105 11 26 12 40 5 47-26 26-455 14-1035-29-299-22-677-73-697-93-12-12 6-286 22-326l11-29 28 27c39 37 99 53 281 77 158 20 320 32 670 49 506 25 888 51 932 65 163 49 247 171 240 348-2 48-25 49-77 4z"/>
  <path d="m14570 5600c-19-4-82-13-140-20-191-22-215-36-154-89 37-33 25-33 174-6 41 8 95 17 120 20 83 12 116 56 68 89-12 9-25 16-28 15s-21-4-40-9z"/>
  <path d="m7020 5480c-25-16-50-30-56-30-5 0-23-13-39-30-16-16-33-30-38-30-15 0-137-113-137-127 0-7-5-13-10-13-14 0-130-121-130-135 0-5-10-15-22-20-22-10-85-120-114-200-40-107-71-290-60-350 4-20 9-35 12-32 3 2 14 37 25 76 11 40 38 110 60 156 21 47 39 88 39 91 0 4 17 32 37 62 20 31 47 76 61 101 13 26 36 62 51 81 14 19 35 48 46 65 60 95 302 345 334 345 6 0 11 5 11 10 0 17-23 10-70-20z"/>
  <path d="m13794 5470c-12-12-72-29-349-100-110-28-234-61-275-74-41-14-122-38-180-56-183-55-204-63-227-89-13-14-23-30-23-36 0-5-12-21-25-34-27-25-31-42-15-72 15-28 42-24 181 26 323 118 396 144 429 154 19 5 87 26 150 45s161 48 217 65c56 16 110 34 121 40 21 11 55 91 50 118-4 21-38 29-54 13z"/>
  <path d="m9832 5371c-15-47-15-114-2-163 11-39 80-109 161-163 190-126 380-295 468-415 77-104 142-257 156-368 12-93 23-120 44-108 19 12 13 210-9 311-31 145-47 194-92 285-48 96-93 164-152 230-44 49-183 172-225 198-50 32-206 149-254 190-61 53-80 54-95 3z"/>
  <path d="m14609 5375c-3-2-58-16-124-30-65-14-125-31-133-37-12-10-13-34-7-133 7-119 20-213 31-224 3-3 10 2 15 12 21 36 67 50 150 43l77-7 6 38c3 21 8 101 12 178 5 116 4 143-8 153-8 6-17 10-19 7z"/>
  <path d="m1204 5273c10-75 53-152 218-389 31-45 70-101 87-125 16-24 43-57 60-73 25-24 33-27 45-17 13 11 13 19-5 64-11 29-27 59-35 68-8 8-14 19-14 22 0 4-16 31-35 61s-35 58-35 61-13 24-30 47c-16 22-30 44-30 48 0 5-15 30-32 57-18 27-55 84-83 126-45 69-76 97-107 97-7 0-9-16-4-47z"/>
  <path d="m2005 5238c4-12 11-24 16-26s19-24 31-49c13-25 28-48 35-50 7-3 13-9 13-14s17-35 38-67c21-31 57-86 80-122 90-140 216-314 388-532 48-61 81-71 76-23-2 17-17 44-33 60-16 17-29 40-29 51s-13 34-30 52c-16 18-30 36-30 40s-23 41-51 82-55 86-60 98c-5 13-18 26-29 29s-20 13-20 23-7 23-15 30-15 18-15 24c0 7-15 30-33 52-18 21-38 50-44 64-12 29-245 275-275 291-18 10-19 8-13-13z"/>
  <path d="m7765 5205c-38-19-73-34-77-35-16-1-207-116-262-158-74-57-177-160-227-229-22-29-39-54-39-57s-16-31-35-64c-46-80-73-153-90-253-15-86-20-215-9-243 11-29 31-17 43 26 20 65 96 206 150 278 88 117 222 231 375 318 148 85 216 98 297 58 40-20 39-20 39 3 0 12 20 29 60 50 54 29 77 34 211 48 175 19 262 11 419-38 340-107 578-337 619-599 17-111 30-150 50-158 26-10 101-105 144-183 35-63 89-212 102-282 4-18 15-43 25-57l18-25 8 29c10 41-3 290-20 361-76 333-277 633-557 827-74 52-91 62-199 113-159 76-333 121-500 130-193 10-291 24-325 45-16 11-48 44-70 74-26 35-47 55-60 55-11 0-51-15-90-34z"/>
  <path d="m13680 5155c-47-18-119-43-160-55s-82-26-90-30c-9-4-31-11-50-15s-41-11-50-16c-19-11-98-39-130-46-14-3-34-12-45-19-11-8-29-14-41-14s-27-7-34-15-22-15-34-15c-11 0-30-7-40-15-11-8-30-15-42-15-13 0-26-4-29-10-8-12 67-14 81-1 5 5 34 16 64 24 134 39 199 56 250 66 30 6 84 18 120 26s87 14 113 15c41 0 48-3 45-17-5-25-129-85-211-103-82-17-132-33-148-46-8-8-23-14-32-14s-19-4-22-10c-3-5-15-10-26-10-10 0-27-4-37-10-95-52-259-93-293-72-15 10-20 8-29-7-5-11-10-35-10-54 0-53-31-180-49-201-21-24-73-46-110-46-60 0-137 47-196 121-78 96-90 106-140 111-115 13-185 126-188 306-2 71-3 75-39 108-43 39-58 42-65 14-3-10-22-29-42-42-42-26-132-30-221-11-178 39-221 44-457 54-139 5-264 14-278 19-68 26-80 6-44-75 18-40 24-46 42-41 77 22 225 17 572-20 210-22 309-59 410-153 57-52 108-156 120-240 4-28 11-53 16-57 5-3 9-16 9-28 0-13 8-34 18-47 18-22 20-22 97-10 76 13 78 12 101-11 27-27 31-55 20-120l-8-48 48-45c86-79 210-108 280-65 45 28 71 89 83 190 24 210 57 236 488 379 373 124 415 131 473 76 20-19 30-23 35-14 5 6 15 97 23 202 18 237 24 228-118 172z"/>
  <path d="m1054 5094c-13-91 1-150 70-290 101-206 339-544 562-801 102-116 475-503 485-503 33 0 139 160 139 208 0 24-14 39-125 139-125 112-261 253-606 628-26 27-73 80-105 116-33 36-75 84-94 105-51 58-147 198-181 264-37 74-111 180-125 180-8 0-16-18-20-46z"/>
  <path d="m13932 4962c-7-5-21-34-32-65-28-80-31-317-6-474 18-111 36-149 36-75 0 20 7 50 15 65 22 43 35 173 35 355 0 183-9 218-48 194z"/>
  <path d="m12834 4855c-10-8-27-15-36-15-19 0-22-8-12-34 9-23 33-19 56 9 11 14 25 25 33 25 7 0 18 7 25 15 11 13 8 15-17 15-16 0-38-7-49-15z"/>
  <path d="m8113 4797c-51-12-93-25-93-28 0-4 15-13 34-19 42-13 116-66 116-81 0-7-18-31-40-55-74-80-55-94 140-110 83-7 183-22 226-34 100-27 234-97 302-156 105-92 203-238 218-326 10-58 46-162 66-190 24-35 61-36 93-4 29 29 41 75 49 190 6 86 6 89-11 73-65-64-87-70-129-34-26 23-27 28-29 123-1 91-20 186-45 219-4 6-11 21-15 35-12 38-68 118-127 181-57 59-164 133-238 163-25 10-54 22-65 27s-45 14-75 20-73 15-95 20c-67 14-185 8-282-14z"/>
  <path d="m10090 4608c0-20 66-174 95-224 14-24 31-44 38-44 22 0 140-150 172-217 12-26 21-33 44-33 64 0 75 23 47 97-8 21-17 50-20 64-7 30-134 189-152 189-6 0-33 23-60 51-55 57-141 129-155 129-5 0-9-6-9-12z"/>
  <path d="m3557 4528c-45-54-80-102-210-286-89-127-97-141-97-171 0-24 69-96 103-107 21-7 67 21 67 40 0 7 12 30 28 49 107 141 190 272 202 318 25 91 8 209-30 209-10 0-38-24-63-52z"/>
  <path d="m4920 4126c0-8 5-18 10-21 6-3 10 3 10 14 0 12-4 21-10 21-5 0-10-6-10-14z"/>
  <path d="m12160 4071c-36-10-126-42-200-71s-175-68-225-87c-49-20-112-44-140-55-27-11-61-23-75-28-14-4-47-19-75-33-27-13-76-35-109-48-74-30-91-54-77-106 6-21 11-55 11-75 0-36 34-154 50-171 3-4 17 1 31 11 35 26 92 55 281 138 253 112 464 223 576 304 64 45 122 122 122 162 0 32-31 68-59 68-11 0-25 2-33 4-7 3-42-3-78-13z"/>
  <path d="m6508 4018c-3-141 2-225 15-257 8-20 22-60 32-88 9-29 39-94 65-145 27-51 60-116 73-143 14-28 36-64 50-80 31-38 67-101 67-120 0-26-26-5-39 30-7 19-17 35-22 35s-25 18-45 40-40 40-45 40c-14 0-10-26 6-40 14-12 21-50 9-50-3 0-14 10-25 23-20 24-25 52-9 62 6 3 5 15-2 31-10 21-13 22-20 9-12-20-47-19-55 1-3 9-1 25 5 35 18 29 15 41-7 29-32-16-41-12-41 21 0 26-3 29-20 24-15-5-20-2-20 12 0 10-6 27-14 38-7 11-17 31-21 45s-16 37-27 52c-10 15-27 51-38 80-47 131-70 190-85 210-8 12-15 34-15 47 0 17-3 22-10 15-11-11-1-121 20-229 6-27 14-75 20-105 13-76 35-152 54-188 9-17 16-38 16-47 0-8 4-23 9-33 5-9 14-30 21-47 31-77 111-208 162-265 7-8 61-78 120-156 101-134 148-206 148-229 0-30 83-106 285-261 205-158 519-302 816-374 233-56 297-63 664-67 303-4 355-2 475 16 153 23 268 54 418 112 116 45 191 54 218 27 12-12 18-40 22-93 2-41 9-78 13-81 13-7 10 511-2 566-6 25-13 75-16 113l-5 67 53 53c97 95 160 172 185 227 4 8 14 23 22 32 10 12 13 29 9 55-4 23-3 32 2 24 12-19 31-5 31 24 0 13 5 27 10 30 6 3 10 16 10 28s6 33 13 47c19 37 28 88 20 118-5 23-7 24-19 8-7-10-10-24-7-32s-3-16-13-20c-11-3-28-10-38-16-15-8-18-7-14 4 8 19-18 78-34 78-7-1-29-14-48-30-19-17-43-30-55-29-11 0-14 3-7 6 14 5 16 39 3 47-5 3-14-1-20-8-9-11-37-14-117-12-93 2-106 0-115-16-15-29-27-21-34 22-4 22-11 40-16 40-12 0-12-57 1-80 7-13 7-21 0-25-6-3-10 4-10 16 0 18-2 19-15 9-8-7-15-18-15-26 0-16-35-78-72-125-15-20-28-41-28-47 0-5-37-41-82-80-46-40-91-78-100-87-10-8-24-15-32-15-7 0-19-7-26-15s-19-15-28-15c-8 0-23-6-31-14-21-19-145-60-246-81-103-22-448-26-545-7-118 24-295 71-330 87-55 27-101 45-114 45-8 0-19 7-26 15s-18 15-26 15c-7 0-43 17-79 38-36 20-78 44-94 53-40 21-208 157-225 180-8 12-23 18-37 17-18-2-25 2-27 19-3 19-122 153-136 153-12 0-5-16 19-42 28-31 34-64 9-54-9 3-20 6-25 6s-9 7-9 15c0 19-36 20-43 1-7-18 1-26 25-26 13 0 18-7 18-25 0-32-27-33-39-2-8 21-14 22-111 22-85-1-103-4-111-18-13-23-29-22-29 2 0 11 9 21 22 24 18 5 19 8 8 22-12 14-15 14-32-5-10-11-23-20-28-20-16 0-11-47 5-54 8-3 15-13 15-23 0-26-58 33-65 68-4 16-11 32-17 35-22 14-118 176-118 200 0 6-7 17-15 24-9 7-13 21-10 30s-1 23-10 30c-8 7-15 17-15 23 0 5-8 28-19 51-25 55-41 103-52 151-5 22-15 58-23 80s-15 50-16 63c0 28-27 82-40 82-6 0-11-24-12-52zm3322-717c-1-22-25-28-122-28-95-1-108 1-108 16s14 17 115 17c63 0 115-2 115-5zm-2522-24c2-10-3-17-12-17-10 0-16 9-16 21 0 24 23 21 28-4zm2225-74c2-10 8-27 13-38 7-20 7-20-14-1-12 11-22 27-22 38 0 23 16 24 23 1zm-2613-239c0-8-4-14-10-14-5 0-10 2-10 4s-3 12-6 20c-5 12-2 15 10 10 9-3 16-12 16-20zm219-179c45-30 85-55 90-55 4 0 19-9 32-19 36-28 87-57 149-86 30-15 78-37 105-51 28-13 56-24 64-24 7 0 25-6 39-14 49-25 332-101 432-116 36-5 97-14 135-21 98-16 756-17 810-1 22 7 71 17 108 22 67 10 222 57 284 85 17 8 37 15 45 15s51 22 96 49c104 62 110 64 138 46 26-17 31-51 11-75-54-69-314-167-582-220-89-18-659-25-770-10-49 6-124 15-165 20-94 10-266 52-445 109-95 31-271 109-331 147-30 19-62 38-72 41-16 6-71 42-82 53-18 19-99 80-106 80-14 0-74 57-74 69 0 16 1 16 89-44z"/>
  <path d="m3116 3896c-20-30-36-59-36-64 0-13 170-172 183-172 6 0 21-10 34-22l23-21v21c0 12-4 22-10 22-5 0-10 21-10 47 0 72-28 146-75 198-23 25-49 45-57 45-9 0-32-24-52-54z"/>
  <path d="m5361 3589c-32-30-43-68-36-119 7-44 114-291 174-400 56-101 42-112-143-113-154 0-186 6-216 39-13 13-29 24-36 24-6 0-22 8-34 18-20 16-23 30-31 172-4 84-13 158-19 164-5 5-10 22-10 37s-4 31-10 34c-10 6-15-15-11-45 1-8 1-67 1-130s0-126 1-140c2-62-2-154-7-162-3-4-34-8-70-8-60 0-65 2-74 26-9 22-15 25-38 21-65-13-77 21-88 248-4 88-10 150-13 137s-10-23-16-24c-5 0-22-9-37-20-23-15-26-24-21-48 5-25 2-30-14-30s-20 7-21 32c0 17-8 38-17 47-15 15-17 14-30-2-7-11-11-25-9-32 4-10-17-12-90-12-53 1-96 5-96 9s39 8 87 8c47 0 83 3 79 7-3 4-50 7-104 7-89 1-97 3-100 21-6 33-22 42-22 13 0-16 9-33 23-43l22-16-28-25c-37-32-44-30-51 9-11 54-19 62-49 42-27-17-49-13-46 8 3 23-1 37-10 37-5 0-9-21-9-46s-6-59-12-75c-15-35-33-32-81 12-17 16-37 29-44 29s-20 10-29 23c-14 20-17 20-26 5-6-10-18-14-30-11-11 3-20 1-20-4 0-18 126-123 148-123 4 0 16-15 26-34 14-26 17-44 11-73-10-56-11-123-2-164 6-28 3-41-11-59l-19-23-21 21c-16 16-19 29-15 59 9 75-36 143-146 217-80 54-226 164-257 195-11 11-24 18-27 14-13-12-7-46 11-59 15-12 13-13-20-14-31 0-38 4-38 19s-6 18-30 15c-16-2-30 1-30 6 0 6 9 10 21 10 11 0 18 4 14 10-3 5-12 7-19 4-8-3-17-1-21 5-8 15-92 14-101-1-11-18 25-37 62-32 19 2 34 1 34-4-1-34-96-44-124-13-9 10-16 24-14 31 2 10-22 13-97 15-111 1-121-1-104-21 21-26-36-16-65 11-15 14-36 25-47 25s-22 7-25 15c-7 17-34 21-34 5 0-6 6-13 14-16s16-14 19-25 14-23 25-26c26-6 65-60 58-79-7-18-26-9-26 11 0 7-9 17-21 20-11 4-24 17-29 31-10 26-32 24-63-8-25-25-37-23-37 8 0 22-4 25-21 21-23-6-56 9-75 33-7 9-16 11-21 6-4-5-2-11 5-13 6-3 12-11 12-19s10-14 25-14c16 0 25-6 25-15 0-8 7-15 15-15s23-9 32-20c10-11 28-20 41-20s25-8 28-17c13-40 30-66 49-74 40-17 70-49 46-49-16 0-93 55-125 89-17 17-35 31-41 31-10 0-56 35-97 75-26 26-54 10-98-56-22-33-40-62-40-65 0-2-27-49-60-105-33-55-60-102-60-104s-47-83-105-180c-58-98-105-179-105-181s-24-41-54-87c-62-95-113-137-202-163-62-18-96-14-187 18-31 12-59 19-61 17-3-2-6-40-7-84-4-140 40-232 128-266 35-13 121-10 165 5 85 31 129 82 275 325 85 142 88 147 209 352 83 142 127 183 191 181 79-3 244-139 291-239l26-58 8 40c4 22 7 113 7 201 1 193 3 197 77 151 27-18 60-41 73-52s40-34 60-50c20-17 70-53 111-79 41-27 94-64 116-82 81-65 133-86 195-81 30 3 63 1 72-5 35-19 7-88-35-88-31 0-104 39-148 79-25 22-48 41-52 41-9 0-99 61-113 76-5 6-30 26-55 44s-50 38-55 44c-6 6-26 19-45 30-19 10-39 24-45 31-20 23-56 38-68 26-13-13-10-244 3-328 13-77 32-103 75-103 40 0 113-36 206-102 77-55 197-126 261-157 57-27 102-80 118-141 32-122 42-149 75-187 71-83 162-104 350-79 168 22 228 21 300-9 33-14 69-25 79-25 11 0 42 22 71 49 28 27 71 59 94 71 77 39 459 115 761 152 241 29 398 29 516 0 106-27 164-30 363-19 159 9 192 20 247 79 61 64 78 130 59 231-9 46-22 47-95 3-46-27-55-37-55-62 0-44-27-41-77 9-80 82-142 104-198 72-45-26-136-19-220 17l-75 31-170-2c-93-1-188-6-210-11s-80-12-130-15c-49-4-103-11-120-16-16-5-57-13-90-18-60-9-111-18-255-47-294-58-339-71-350-99-5-12-6-58-4-101 7-96-10-157-43-162-36-5-56 36-44 89 6 24 11 92 11 151v108l40 20c21 11 50 20 63 20s37 4 53 9c78 24 472 102 609 120 44 6 116 16 160 21 44 6 150 13 235 16l155 6 85-33c111-42 174-47 228-20 52 27 67 26 145-3 53-20 72-23 110-15 76 14 123 47 173 124 24 38 28 191 4 220-8 9-19 25-25 35-26 44-66 100-102 142-21 24-51 62-68 83-30 37-113 131-148 168-18 18-19 17-41-15-25-36-17-63 16-54 17 4 18 0 13-25-5-21-2-31 9-35 9-3 31-28 49-54 17-26 47-65 64-86 88-105 133-164 133-174 0-6 12-22 26-35 24-22 58-117 46-129-3-3-16-6-28-6-17 0-29 11-44 38-11 20-35 54-53 75l-34 39 5-86c4-74 2-90-14-107-13-15-25-18-44-14-45 12-51 23-46 94 5 80-27 201-56 209-10 2-18 8-18 13s-19 28-41 51c-23 24-52 59-65 78-13 20-44 52-69 73s-45 43-45 49-10 21-22 33c-22 22-92 99-114 126-6 8-21 21-34 29-12 8-32 22-44 31-18 14-25 15-39 4-21-15-22-29-2-45 8-7 12-16 9-21-8-14-36-11-55 7-11 10-27 14-41 11-36-9-43-4-43 28 0 20-6 31-17 33-14 3-18-3-18-28s-4-31-17-28c-11 2-18 13-18 27 0 28-23 40-35 20-5-7-6-33-3-57 4-31 2-43-5-38-6 4-9 13-5 21 5 14-6 19-34 16-8-1-13 11-13 34 0 24-4 35-15 35-9 0-15 9-15 25s-6 25-15 25c-8 0-15 6-15 14 0 7-9 25-20 39s-20 30-20 36c0 23-77 121-95 121-6 0-21-9-34-21zm-2051-277c0-4-36-8-80-8-44-1-80 3-80 8 0 4 36 8 80 8s80-4 80-8zm685-32c3-5-3-10-14-10-12 0-21 5-21 10 0 6 6 10 14 10s18-4 21-10zm223-44c2-9 1-24-3-33-10-27-39 8-30 36 8 25 28 23 33-3zm-96-84c-9-25-19 7-13 41l5 32 6-30c3-16 4-36 2-43zm1588 21c-1-27-1-27-15-9-14 19-12 36 6 36 5 0 9-12 9-27zm-1164-891c6-4 17-18 24-31 11-21 10-26-6-38-22-16-23-16-174-38-63-9-147-21-187-27-96-14-175-4-213 29-37 31-42 69-7 56 31-11 138-9 232 5 90 14 307 49 315 51 3 0 10-3 16-7z"/>
  <path d="m10494 3467c-11-12-35-30-54-40l-33-18 7-124c8-149 30-286 49-300 32-24 38-57 41-252 2-109 1-206-3-217-4-10-4-41-1-68 6-41 4-51-12-59-10-5-18-19-18-29 0-23 10-26 28-8 7 7 12 10 13 8 0-3 7-34 14-70s25-105 39-155c34-113 53-197 71-305 27-164 63-321 95-416 68-198 167-348 247-374 41-14 95-8 130 15 15 10 45 60 78 128 29 62 70 141 90 176 58 104 75 169 105 416 12 92 12 105 0 105-5 0-10-7-10-15 0-29-67-152-103-187-32-33-57-88-57-129 0-20-35-130-51-161-16-32-60-78-74-78-7 0-29-11-49-25-34-23-42-24-77-15-27 8-39 16-39 29 0 10-7 25-16 32-28 23-60 82-73 133-7 27-19 58-27 70-7 11-14 35-14 52s-7 45-16 62c-16 34-12 52 12 52 18 0 18 14 0 29-8 6-16 26-19 44-2 18-14 79-26 137-34 171-40 202-46 255-4 28-11 66-15 85-14 55-51 369-52 430 0 30-6 86-14 123-14 68-19 272-8 315 8 28 28 28 47-1 12-18 14-48 11-148-3-89 0-142 11-189 8-36 19-112 24-170 15-162 47-359 98-595 38-178 73-294 110-368 14-27 28-67 30-88 4-28 15-48 40-69 18-17 40-30 47-30 33 0 71 81 83 177 3 29 10 56 14 59 5 3 9 14 9 24s13 26 28 35c31 19 72 73 72 97 0 8 7 29 15 46 43 85 67 453 46 702-6 69-16 186-21 260-6 74-18 163-26 198-7 35-14 87-14 116 0 43-12 105-35 173-7 19-35 3-47-26l-10-26-15 29c-15 28-16 29-29 11-8-10-14-24-14-29-1-6-8 1-16 17-15 28-25 33-38 20-11-12-219-12-233-1-7 6-18 6-30 0-13-7-24-6-38 4-10 8-25 14-32 14-21 0-53-38-53-64 0-31-14-40-30-22-8 11-9 20 0 36 12 23 6 40-16 40-10 0-14-10-12-35 1-19 0-37-3-40-4-3-9 34-13 81-5 72-10 91-29 110l-23 22zm526-156c0-4-49-8-110-8-98 1-111-1-125-18-14-20-14-20-15 2 0 12 7 23 18 26 32 9 232 7 232-2zm69-113c1-10-6-18-14-18-16 0-18 12-8 49 6 23 7 23 14 5 4-10 8-27 8-36z"/>
  <path d="m10070 3445c0-9 5-15 11-13s11 8 11 13-5 11-11 13-11-4-11-13z"/>
  <path d="m6092 3439c2-7 10-15 17-17 8-3 12 1 9 9-2 7-10 15-17 17-8 3-12-1-9-9z"/>
  <path d="m2322 3428c-13-6-22-18-20-26 5-27 23-23 35 8 6 16 11 30 10 29-1 0-12-5-25-11z"/>
  <path d="m2191 3421c-10-6-11-13-3-27 10-18 11-18 17-2 10 25 3 39-14 29z"/>
  <path d="m6832 3408c2-13 8-23 13-23 6 0 11 10 13 23 2 15-2 22-13 22s-15-7-13-22z"/>
  <path d="m10260 3399c-31-17-36-26-52-91-49-202-101-335-177-447-23-33-79-100-126-149-96-102-95-97-74-261 10-85 23-125 39-119 8 3 117 138 157 195 26 36 100 182 166 324 45 97 73 129 113 129 16 0 23 8 28 31 8 40 8 372 0 393-8 20-30 19-74-5z"/>
  <path d="m7040 3400c-12-8-12-10 2-15 20-8 41 2 33 16-8 11-16 11-35-1z"/>
  <path d="m13850 3396c0-8 5-18 10-21 6-3 10 3 10 14 0 12-4 21-10 21-5 0-10-6-10-14z"/>
  <path d="m5892 3391c4-13 18-16 19-4 0 4-5 9-11 12-7 2-11-2-8-8z"/>
  <path d="m6890 3380c0-11 7-20 15-20s15 9 15 20-7 20-15 20-15-9-15-20z"/>
  <path d="m14207 3354c-2-26-11-50-18-55-23-15-54-6-54 16 0 19-6 20-120 18-99-1-121 2-131 15-10 14-14 14-28 3-12-10-15-23-10-46 3-19 1-35-5-39s-12-4-12 1c-1 4-3 24-5 43-5 43-22 61-35 38-5-10-16-15-24-12-11 5-15-2-16-22-1-43-8-142-20-289-16-178-15-537 1-603 6-29 29-78 50-111 31-48 49-64 101-90 155-77 327-8 390 158 34 92 78 497 49 451-5-8-10-38-10-66 0-33-5-56-15-64-8-7-15-19-15-26 0-28-113-129-165-147-106-37-268-5-297 58-16 35-5 40 42 21 22-9 58-16 81-16 42 0 152 41 182 68 39 35 70 123 78 217 3 49 12 110 19 134 7 28 10 103 8 213-3 170-11 219-21 132zm-97-42c0-4-43-8-95-9s-95 3-95 8 43 9 95 9 95-3 95-8zm-200-30c0-13-12-22-22-16s-1 24 13 24c5 0 9-4 9-8z"/>
  <path d="m2490 3365c0-25 14-34 24-16 8 12-3 41-15 41-5 0-9-11-9-25z"/>
  <path d="m2850 3364c0-9 7-14 17-12 25 5 28 28 4 28-12 0-21-6-21-16z"/>
  <path d="m5607 3374c-8-8 1-24 14-24 5 0 9 7 9 15 0 15-12 20-23 9z"/>
  <path d="m2137 3364c-4-4-7-14-7-21 0-8-5-19-10-26-24-27-80-120-80-131 0-7-4-16-9-21-4-6-29-55-54-110-126-278-180-500-144-587 13-30 22-38 52-44 147-27 253 43 359 241 15 28 31 57 36 65 43 70 130 231 130 239 0 6 4 11 10 11 5 0 13 12 16 28 4 15 13 35 21 44s13 22 11 29c-2 6 11 27 29 47s33 41 33 48 18 44 41 83c22 39 38 77 36 83-4 10-6 10-6 1-1-7-7-13-14-13-17 0-57-42-57-59 0-7-9-11-22-9-19 2-24 10-26 41-3 30-7 37-20 35-10-2-18-15-20-33-2-17-10-34-19-38-9-6-13-17-9-32 6-25-7-41-24-30-7 4-7 13 0 26s7 25 0 38c-8 16-6 21 10 26 28 9 28 55 0 55-19 0-24-9-21-36 1-7-36-11-108-11-108 0-108 0-108 24 0 27-15 47-26 37zm-21-160c-5-19-10-24-18-16-6 6-8 22-4 38 5 19 10 24 18 16 6-6 8-22 4-38z"/>
  <path d="m6217 3347c-21-26-21-36-3-43 8-3 18-18 21-34s13-31 21-34 14-12 14-21c0-22 32-19 53 5 23 27 21 47-5 61-13 7-28 19-34 28-10 13-14 13-30 1-16-14-17-13-11 17 8 40-3 48-26 20z"/>
  <path d="m5782 3343c2-10 10-18 18-18 22 0 18 29-3 33-14 3-18-1-15-15z"/>
  <path d="m2900 3337c0-19 10-27 26-20 21 8 17 33-6 33-11 0-20-6-20-13z"/>
  <path d="m3860 3340c0-5 7-10 15-10s15 5 15 10c0 6-7 10-15 10s-15-4-15-10z"/>
  <path d="m2192 3328c-9-3 25-7 77-7 52-1 91 2 88 6-9 9-143 10-165 1z"/>
  <path d="m6992 3328c-9-4 23-7 72-7 49-1 86 2 82 6-9 9-132 10-154 1z"/>
  <path d="m10349 2709c-12-28-11-235 1-223 7 7 10 54 8 125-2 63-6 107-9 98z"/>
  <path d="m10407 2313c-24-6-11-23 19-23 15 0 24 6 24 15 0 15-9 17-43 8z"/>
 </g>
</svg>
