<svg width="128.62" height="100" version="1.1" viewBox="197.4 10.4 128.62 100" xmlns="http://www.w3.org/2000/svg">
 <defs>
  <filter x="-.084375" y="-.10853" width="1.1833" height="1.2358">
   <feFlood result="black"/>
   <feMorphology in="SourceGraphic" operator="dilate" radius="2" result="erode"/>
   <feGaussianBlur in="erode" result="blur" stdDeviation="4"/>
   <feOffset dx="2" dy="2" in="blur" result="offset"/>
   <feComposite in="offset" in2="black" operator="atop" result="merge"/>
   <feComposite in="merge" in2="SourceGraphic" operator="in" result="inner-shadow"/>
  </filter>
 </defs>
 <g transform="matrix(.93556 0 0 .93556 -3.5733 -46.887)" fill="#0125ed" filter="url(#editing-hole)">
  <g transform="matrix(1.7154,0,0,1.7154,237.87,125.68)" fill="#0125ed">
   <path d="m5.8995-24.171q-0.32712-0.83744-0.32712-1.4263 0-3.5984 2.931-6.2808 2.931-2.6693 7.4453-3.6769 5.862-1.3477 10.769-1.3477 4.8938 0 8.165 0.83744 0.91594-1.086 1.7534-1.1646 1.4263-0.1701 1.4263 2.002l1.7534 0.75893q1.2562 0.66733 2.0151 1.845 1.0075 1.7534-2.5123 0.49723l-1.6749-0.41872q-0.41872 3.3497-0.41872 6.7911 0 8.2043 2.2637 17.076 5.0246-5.862 12.601-16.291 7.5762-10.416 9.0024-12.182 0.41872-0.41872 0.79818-0.41872t0.91594 0.34021q0.54957 0.32712-0.03926 1.3347-11.475 17.416-22.441 30.069 1.845 5.862 4.2657 9.9184 2.4338 4.0694 3.9386 5.1555 1.5048 1.086 2.5908 1.086 1.0991 0 1.9366-0.24861 2.4207-0.66733 6.5294-4.4358 4.0956-3.7685 5.862-6.4509 0.32712-0.51031 0.79818-0.24861 0.45797 0.24861 0.45797 0.41872 0 1.086-3.7685 5.2732-8.1257 9.0417-13.648 9.0417-1.9366 0-3.7685-1.1253-1.845-1.1384-4.4881-4.7367-2.6301-3.5984-4.6452-9.0417-5.9406 6.6079-11.933 11.894-5.9929 5.2732-10.18 7.864-9.9576 6.2023-16.579 6.2023-4.5143 0-8.0341-2.5123-3.1011-2.2637-3.1011-6.5294 0-1.0991 0.41872-1.8057 0.41872-0.70659 0.83744-0.37946 0.41872 0.34021 0.41872 2.5516 0 2.2244 2.2637 3.7292 2.5123 1.5964 5.7312 1.5964 3.232 0 6.5294-1.1776 3.3105-1.1646 7.1182-3.3105 3.8208-2.1328 7.2883-4.6844 3.4806-2.5516 7.0004-5.5742 5.5218-4.6844 11.305-10.717-2.774-8.623-2.774-17.037 0-8.4136 0.83744-11.933-1.9235-0.1701-4.0171-0.1701-2.0936 0-5.4433 0.28787-3.3497 0.30095-7.4061 1.387-4.0694 1.086-6.5294 3.2189-2.4731 2.1459-2.4731 4.3965 0 2.2637 1.086 3.2712t2.7217 1.7141q1.6356 0.71967 1.8842 0.87669 0.83744 0.51031 0 0.83744l-0.83744 0.0916q-2.0151-0.51031-4.318-2.5123-2.3029-2.0151-2.3029-4.5274z" fill="#0125ed" stroke-width="1.3085"/>
  </g>
 </g>
</svg>
