<?xml version="1.0" encoding="UTF-8"?>
<svg version="1.0" viewBox="0 0 100.17 120" xmlns="http://www.w3.org/2000/svg">
 <defs>
  <linearGradient id="linearGradient26" x1="14.554" x2="510.45" y1="300.01" y2="300.01" gradientTransform="matrix(.20081 0 0 .20081 -2.6238 -.24343)" gradientUnits="userSpaceOnUse">
   <stop stop-color="#0026ff" offset="0"/>
   <stop stop-color="#002eff" stop-opacity="0" offset="1"/>
  </linearGradient>
 </defs>
 <path id="X" d="m0.49953 100c0-1.878 6.7685-11.307 15.041-20.954 8.2726-9.6469 16.246-19.014 17.716-20.815 1.4715-1.8016-0.056879-12.259-3.3965-23.239-6.9183-22.745-7.549-30.309-2.7733-33.26 6.5274-4.0341 15.485 1.9256 23.005 15.305l7.6179 13.554 14.306-14.04c9.4065-9.2318 16.121-13.343 19.607-12.006 6.8965 2.6465 10.876 13.002 5.6648 14.739-5.9155 1.9718-30.399 39.231-30.353 46.19 0.02199 3.2955 3.5008 12.042 7.7307 19.439 2.9835 5.2164 6.9938 9.3327 5.4018 12.162l-8.5099 15.125c-1.6505 2.9335-7.7469-4.8875-14.969-12.479l-12.598-13.243-13.966 16.563c-7.6813 9.1097-14.852 16.516-15.936 16.458-1.0836-0.05732-13.59-17.621-13.59-19.498z" fill="url(#linearGradient26)" stroke="#a80" stroke-linejoin="round" stroke-width=".99905"/>
</svg>
