<?xml version="1.0" encoding="UTF-8"?>
<svg version="1.0" viewBox="0 0 100.07 120" xmlns="http://www.w3.org/2000/svg" xmlns:xlink="http://www.w3.org/1999/xlink">
 <defs>
  <linearGradient id="linearGradient26" x1="14.554" x2="510.45" y1="300.01" y2="300.01" gradientTransform="matrix(.2018 0 0 .2018 -2.937 -.5409)" gradientUnits="userSpaceOnUse">
   <stop stop-color="#0026ff" offset="0"/>
   <stop stop-color="#002eff" stop-opacity="0" offset="1"/>
  </linearGradient>
 </defs>
 <path id="X" d="m0.2018 100.2c0-1.8873 6.802-11.363 15.116-21.058 8.3136-9.6947 16.326-19.108 17.804-20.918 1.4788-1.8105-0.057159-12.32-3.4133-23.354-6.9526-22.858-7.5864-30.459-2.787-33.425 6.5597-4.0541 15.562 1.9351 23.119 15.381l7.6556 13.621 14.377-14.11c9.4531-9.2775 16.201-13.409 19.704-12.065 6.9307 2.6596 10.93 13.066 5.6929 14.812-5.9448 1.9816-30.55 39.425-30.503 46.419 0.0221 3.3118 3.5181 12.102 7.769 19.535 2.9983 5.2422 7.0284 9.3789 5.4286 12.222l-8.5521 15.2c-1.6587 2.948-7.7853-4.9117-15.043-12.541l-12.66-13.309-14.035 16.645c-7.7194 9.1548-14.926 16.598-16.015 16.54-1.089-0.0576-13.657-17.708-13.657-19.595z" fill="url(#linearGradient26)" stroke="#000" stroke-linejoin="round" stroke-width=".40359"/>
</svg>
